<svg xmlns="http://www.w3.org/2000/svg" viewBox="0 0 64 64" id="finance"><path fill="#57565c" d="M60.82,56.83A2,2,0,0,1,58.83,59H5.17a2,2,0,0,1-1.99-2.17l1.67-20A1.994,1.994,0,0,1,6.84,35H57.16a1.994,1.994,0,0,1,1.99,1.83Z"></path><path fill="#c6c5ca" d="M56.47,52.83A2,2,0,0,1,54.48,55H9.52a2,2,0,0,1-1.99-2.17l1-12A1.887,1.887,0,0,1,9,39.71H55a1.887,1.887,0,0,1,.47,1.12Z"></path><rect width="46" height="38" x="9" y="8" fill="#2488ff" rx="2" ry="2"></rect><circle cx="32" cy="27" r="10" fill="#ffde55"></circle><path d="M32,30a1,1,0,0,1-1-1H29a3,3,0,0,0,2,2.816V34h2V31.816A2.993,2.993,0,0,0,32,26a1,1,0,1,1,1-1h2a3,3,0,0,0-2-2.816V20H31v2.184A2.993,2.993,0,0,0,32,28a1,1,0,0,1,0,2Z"></path><path d="M32,38A11,11,0,1,0,21,27,11.013,11.013,0,0,0,32,38Zm0-20a9,9,0,1,1-9,9A9.011,9.011,0,0,1,32,18Z"></path><rect width="4" height="2" x="30" y="51"></rect><path d="M60.147,36.752A3,3,0,0,0,57.16,34H56V10a3,3,0,0,0-3-3H11a3,3,0,0,0-3,3V34H6.84a3,3,0,0,0-2.986,2.747l-1.67,20A3,3,0,0,0,5.17,60H58.83a3,3,0,0,0,2.986-3.253ZM9.079,46.285A2.976,2.976,0,0,0,11,47H53a2.976,2.976,0,0,0,1.921-.715l.553,6.63A1,1,0,0,1,54.48,54H9.52a1,1,0,0,1-.994-1.087ZM10,10a1,1,0,0,1,1-1H53a1,1,0,0,1,1,1V44a1,1,0,0,1-1,1H11a1,1,0,0,1-1-1ZM59.564,57.678A.983.983,0,0,1,58.83,58H5.17a1,1,0,0,1-.993-1.087l1.67-20A1,1,0,0,1,6.84,36H8v3.385a2.849,2.849,0,0,0-.467,1.362l-1,12A3,3,0,0,0,9.52,56H54.48a3,3,0,0,0,2.987-3.253l-1-11.987A2.872,2.872,0,0,0,56,39.385V36h1.16a1,1,0,0,1,.993.913l1.67,20A.985.985,0,0,1,59.564,57.678Z"></path><rect width="4" height="2" x="45" y="11"></rect><rect width="2" height="2" x="42" y="11"></rect><rect width="2" height="2" x="50" y="11"></rect><rect width="4" height="2" x="42" y="14"></rect><rect width="5" height="2" x="47" y="14"></rect><rect width="4" height="2" x="42" y="17"></rect><rect width="2" height="2" x="47" y="17"></rect><rect width="2" height="2" x="50" y="17"></rect><rect width="4" height="2" x="15" y="35"></rect><rect width="2" height="2" x="12" y="35"></rect><rect width="2" height="2" x="20" y="35"></rect><rect width="4" height="2" x="12" y="38"></rect><rect width="5" height="2" x="17" y="38"></rect><rect width="4" height="2" x="12" y="41"></rect><rect width="2" height="2" x="17" y="41"></rect><rect width="2" height="2" x="20" y="41"></rect></svg>